#!OML:ASF E:\Mandelcareful walks\Project 1\Capture day 1\Session 1\Subject1.ASF
:FULLY-SPECIFIED
:DEGREES
1183
root -19.684 16.6 2.52514 362.995 -99.2784 721.625
lowerback 5.74646 2.23161 -5.53747
upperback 6.32657 2.56965 -0.720645
thorax 3.12559 0.982022 2.26493
lowerneck -18.6118 -10.9839 -15.5638
upperneck 27.1494 -12.814 5.2971
head 13.718 -6.63523 2.27697
rclavicle 2.18663e-015 2.82274e-014
rhumerus -29.1722 2.8425 -84.9185
rradius 32.4004
rwrist -14.959
rhand -10.2092 -29.6166
rfingers 7.12502
rthumb 15.7822 -58.9932
lclavicle 2.18663e-015 2.82274e-014
lhumerus -27.8676 3.73654 84
lradius 30.7849
lwrist 17.0207
lhand -24.6124 -14.6808
lfingers 7.12502
lthumb 1.88588 15.2907
rfemur 0.250729 -9.25024 9.34049
rtibia 42.9454
rfoot -6.01309 -19.3507
rtoes 18.917
lfemur -24.6929 11.0008 -20.8716
ltibia 39.377
lfoot -17.5957 9.27533
ltoes 7.7073
1184
root -19.825 16.6166 2.59177 366.779 -99.0773 717.631
lowerback 6.05123 1.93779 -6.16724
upperback 6.25053 2.1315 -0.877454
thorax 2.90061 0.748645 2.45963
lowerneck -18.1937 -11.2324 -15.8459
upperneck 26.621 -13.228 5.66367
head 13.5165 -6.79624 2.39851
rclavicle -2.84262e-014 2.54444e-014
rhumerus -29.1827 2.82152 -85.0351
rradius 32.8076
rwrist -15.5016
rhand -10.1079 -29.7732
rfingers 7.12502
rthumb 15.8797 -59.1421
lclavicle -2.84262e-014 2.54444e-014
lhumerus -27.6008 3.34646 83.6156
lradius 31.0295
lwrist 16.9517
lhand -24.5102 -14.0395
lfingers 7.12502
lthumb 1.98464 15.931
rfemur -1.69304 -10.2055 8.71437
rtibia 45.2473
rfoot -6.69064 -18.7956
rtoes 17.3354
lfemur -23.6147 10.3951 -21.8007
ltibia 38.7451
lfoot -18.0074 9.57803
ltoes 7.8222
1185
root -19.9596 16.638 2.62668 362.401 -99.2213 721.8
lowerback 6.37612 1.77627 -5.9639
upperback 6.19589 1.89624 -0.584709
thorax 2.67804 0.641406 2.65069
lowerneck -18.0323 -11.4338 -16.0521
upperneck 26.3931 -13.5122 5.81179
head 13.4558 -6.92037 2.43549
rclavicle -8.54774e-015 0
rhumerus -28.9302 2.39024 -85.0318
rradius 32.4528
rwrist -15.6177
rhand -9.90438 -29.334
rfingers 7.12502
rthumb 16.0757 -58.6872
lclavicle -8.54774e-015 0
lhumerus -27.2445 2.89591 83.3143
lradius 31.1163
lwrist 17.1689
lhand -24.6605 -14.1356
lfingers 7.12502
lthumb 1.8395 15.8362
rfemur -3.68073 -10.1578 10.0622
rtibia 47.0164
rfoot -7.60547 -19.1399
rtoes 16.1732
lfemur -22.5453 10.2108 -21.1078
ltibia 38.1379
lfoot -18.2158 9.89546
ltoes 7.66111
1186
root -20.1085 16.6547 2.68487 365.471 -99.3926 718.489
lowerback 6.45424 1.60337 -6.51345
upperback 6.15624 1.63584 -0.717986
thorax 2.61121 0.495736 2.82899
lowerneck -17.955 -11.6242 -16.2313
upperneck 26.2719 -13.7913 5.97948
head 13.4564 -7.03697 2.47199
rclavicle -1.19271e-014 1.11319e-014
rhumerus -28.8354 2.01464 -85.0624
rradius 32.3721
rwrist -15.8148
rhand -9.78349 -28.7264
rfingers 7.12502
rthumb 16.1921 -58.0701
lclavicle -1.19271e-014 1.11319e-014
lhumerus -26.9385 2.45083 83.0241
lradius 31.2656
lwrist 17.6033
lhand -25.1117 -14.8437
lfingers 7.12502
lthumb 1.40365 15.1314
rfemur -5.45992 -10.6873 9.70901
rtibia 48.3157
rfoot -8.30105 -18.9877
rtoes 15.0345
lfemur -21.4025 9.95842 -21.9154
ltibia 37.5961
lfoot -18.5482 10.3509
ltoes 7.02933
1187
root -20.2478 16.666 2.72513 370.329 -99.439 713.393
lowerback 6.5539 1.44762 -7.46645
upperback 6.09736 1.37587 -0.915513
thorax 2.51393 0.33852 3.16539
lowerneck -17.6144 -11.7447 -16.3194
upperneck 25.8923 -14.0238 6.16351
head 13.2843 -7.12799 2.5265
rclavicle -9.93923e-016 -2.62396e-014
rhumerus -29.0501 1.98283 -85.2126
rradius 32.9158
rwrist -16.3343
rhand -9.74199 -28.984
rfingers 7.12502
rthumb 16.2321 -58.3245
lclavicle -9.93923e-016 -2.62396e-014
lhumerus -26.6848 2.12148 82.6834
lradius 31.4566
lwrist 17.8444
lhand -25.4839 -15.2673
lfingers 7.12502
lthumb 1.04417 14.7099
rfemur -7.08836 -11.1816 9.19748
rtibia 49.1198
rfoot -9.53047 -19.2027
rtoes 14.6453
lfemur -20.3498 9.56689 -22.9898
ltibia 37.0058
lfoot -18.8498 10.7246
ltoes 6.48999
1188
root -20.357 16.6818 2.76695 367.645 -99.288 716.146
lowerback 6.89389 1.23473 -7.03892
upperback 5.86266 1.08303 -0.745722
thorax 2.11021 0.228895 3.11234
lowerneck -17.2261 -11.8281 -16.4407
upperneck 25.5766 -14.1735 6.22788
head 13.1129 -7.20481 2.55889
rclavicle -9.93923e-016 -2.38542e-015
rhumerus -29.3882 2.3834 -85.3553
rradius 33.4919
rwrist -17.1155
rhand -9.92015 -29.2096
rfingers 7.12502
rthumb 16.0605 -58.5639
lclavicle -9.93923e-016 -2.38542e-015
lhumerus -26.5218 2.0912 82.3576
lradius 31.6761
lwrist 17.803
lhand -25.6518 -15.0492
lfingers 7.12502
lthumb 0.882028 14.9287
rfemur -9.00585 -11.3644 10.3849
rtibia 49.5153
rfoot -11.0256 -19.8624
rtoes 14.8104
lfemur -19.7209 9.0848 -22.6461
ltibia 36.4331
lfoot -19.0097 11.1111
ltoes 6.46307
1189
root -20.527 16.6963 2.80352 370.448 -99.5616 712.927
lowerback 6.69333 1.14263 -7.5462
upperback 5.9479 0.953529 -0.90393
thorax 2.32553 0.13775 3.2403
lowerneck -17.0131 -11.9331 -16.5962
upperneck 25.372 -14.3796 6.47974
head 13.0505 -7.28274 2.64691
rclavicle 0 -2.22639e-014
rhumerus -29.6983 2.70448 -85.5634
rradius 33.9834
rwrist -17.771
rhand -10.0815 -28.1304
rfingers 7.12502
rthumb 15.9052 -57.4973
lclavicle 0 -2.22639e-014
lhumerus -26.3451 2.17182 81.955
lradius 31.9833
lwrist 17.7457
lhand -25.6821 -14.6208
lfingers 7.12502
lthumb 0.852787 15.3573
rfemur -10.0881 -11.4988 10.1476
rtibia 49.3763
rfoot -12.3906 -19.9927
rtoes 15.3955
lfemur -18.286 8.9581 -23.3602
ltibia 35.9352
lfoot -19.6663 11.4091
ltoes 6.55648
1190
root -20.6426 16.7054 2.8278 373.356 -99.716 710.054
lowerback 6.72834 1.02345 -8.23128
upperback 5.82747 0.756966 -1.00892
thorax 2.20372 0.0271226 3.52263
lowerneck -16.8933 -12.041 -16.7688
upperneck 25.0863 -14.603 6.89357
head 12.9936 -7.34559 2.79151
rclavicle 2.72335e-014 7.15625e-015
rhumerus -29.8284 2.80271 -85.7668
rradius 34.3486
rwrist -17.9891
rhand -10.0296 -27.2145
rfingers 7.12502
rthumb 15.9552 -56.5774
lclavicle 2.72335e-014 7.15625e-015
lhumerus -26.032 2.22335 81.5658
lradius 32.3126
lwrist 17.9358
lhand -25.6825 -14.1869
lfingers 7.12502
lthumb 0.852371 15.7912
rfemur -11.9038 -11.3882 10.3125
rtibia 49.0211
rfoot -13.6592 -20.7848
rtoes 15.8039
lfemur -17.7216 8.71674 -24.0278
ltibia 35.53
lfoot -20.0326 11.6762
ltoes 6.83179
1191
root -20.7868 16.7134 2.85405 368.602 -99.8563 714.698
lowerback 6.48653 0.894054 -7.53194
upperback 5.92339 0.646471 -0.761178
thorax 2.44819 -0.0191688 3.39738
lowerneck -16.9082 -12.1195 -16.8152
upperneck 24.8661 -14.6871 6.94057
head 12.9273 -7.37577 2.79884
rclavicle 7.95139e-015 -1.74931e-014
rhumerus -29.8473 3.25476 -85.899
rradius 34.5994
rwrist -18.1662
rhand -10.2186 -27.2296
rfingers 7.12502
rthumb 15.7731 -56.607
lclavicle 7.95139e-015 -1.74931e-014
lhumerus -25.7077 2.41783 81.2811
lradius 32.6825
lwrist 18.1257
lhand -25.7384 -13.8834
lfingers 7.12502
lthumb 0.798359 16.0948
rfemur -13.1645 -10.9649 11.771
rtibia 48.2662
rfoot -14.5312 -21.8669
rtoes 12.9397
lfemur -16.7179 8.72859 -23.2285
ltibia 35.0484
lfoot -20.5165 11.7091
ltoes 7.51844
